<svg id="Capa_1" enable-background="new 0 0 512 512" height="512" viewBox="0 0 512 512" width="512" xmlns="http://www.w3.org/2000/svg"><g><path d="m512 256c0 65.31-24.46 124.9-64.71 170.13-121.68 54.62-260.9 54.62-382.58 0-40.25-45.23-64.71-104.82-64.71-170.13 0-46.22 12.25-89.57 33.68-127 44.12-77.07 127.16-129 222.32-129s178.2 51.93 222.32 129c21.43 37.43 33.68 80.78 33.68 127z" fill="#464f6e"/><path d="m512 256c0 65.31-24.46 124.9-64.71 170.13-121.68 54.62-260.9 54.62-382.58 0-40.25-45.23-64.71-104.82-64.71-170.13 0-46.22 12.25-89.57 33.68-127 44.12 77.07 127.16 129 222.32 129s178.2-51.93 222.32-129c21.43 37.43 33.68 80.78 33.68 127z" fill="#303c5a"/><g><g><g><path d="m447.29 426.13c-46.89 52.68-115.22 85.87-191.29 85.87s-144.4-33.19-191.29-85.87c4.03-32.71 27.03-60.45 59.22-70.08l59.25-17.72 36.01-4.68h73.62l36.01 4.68 59.25 17.72c32.19 9.63 55.19 37.37 59.22 70.08z" fill="#fff"/><path d="m447.29 426.13c-46.89 52.68-115.22 85.87-191.29 85.87v-178.35h36.81l36.01 4.68 59.25 17.72c32.19 9.63 55.19 37.37 59.22 70.08z" fill="#cff6ff"/><path d="m276.54 333.65v177.54c-6.77.54-13.62.81-20.54.81s-13.77-.27-20.54-.81v-177.54z" fill="#76e3f8"/><path d="m276.54 333.65v177.54c-6.77.54-13.62.81-20.54.81v-178.35z" fill="#26d9f8"/><path d="m370.599 217.825v114.585c0 63.267-51.292 114.572-114.559 114.585-.013 0-.013 0-.026 0-63.28 0-114.586-51.305-114.586-114.585v-114.585z" fill="#cff6ff"/><path d="m370.599 217.825v114.585c0 63.267-51.292 114.572-114.559 114.585v-229.17z" fill="#b0edf7"/><g><g><g><g><g><g><g><g><g><path d="m105.387 197.635c0 25.67 20.81 46.481 46.481 46.481v-92.961c-25.671-.001-46.481 20.809-46.481 46.48z" fill="#76e3f8"/><path d="m406.613 197.635c0 25.67-20.81 46.481-46.481 46.481v-92.961c25.671-.001 46.481 20.809 46.481 46.48z" fill="#26d9f8"/></g><path d="m370.572 168.807v43.195c0 63.254-51.279 114.559-114.559 114.572-.013 0-.013 0-.026 0-63.254 0-114.559-51.318-114.559-114.572v-43.195c0-6.52.526-12.895 1.604-19.1 7.48-44.641 40.776-80.5 83.997-91.792 9.241-2.405 18.968-3.681 28.959-3.681h.026c10.017 0 19.731 1.275 28.985 3.707 43.208 11.265 76.478 47.125 83.958 91.766 1.063 6.205 1.615 12.581 1.615 19.1z" fill="#fff"/><path d="m370.594 168.802v43.195c0 63.253-51.278 114.565-114.554 114.576v-272.336c10.018 0 19.73 1.279 28.978 3.701 43.218 11.263 76.486 47.134 83.968 91.767 1.065 6.204 1.608 12.588 1.608 19.097z" fill="#cff6ff"/><path d="m305.69 154.78h-98.11c-11.45 0-22.21 4.46-30.3 12.55-8.1 8.09-12.56 18.86-12.56 30.3 0 23.63 19.23 42.86 42.86 42.86h98.11c11.43 0 22.19-4.45 30.3-12.55 8.1-8.11 12.56-18.87 12.56-30.31 0-23.63-19.23-42.85-42.86-42.85z" fill="#303c5a"/><path d="m348.55 197.63c0 11.44-4.46 22.2-12.56 30.31-8.11 8.1-18.87 12.55-30.3 12.55h-49.65v-85.71h49.65c23.63 0 42.86 19.22 42.86 42.85z" fill="#22273b"/><path d="m322.241 197.631c0 7.082-2.873 13.489-7.513 18.136-4.64 4.632-11.054 7.505-18.128 7.505h-79.93c-14.157 0-25.641-11.477-25.641-25.641 0-7.075 2.873-13.489 7.513-18.128 4.64-4.64 11.046-7.505 18.128-7.505h79.93c14.157 0 25.641 11.477 25.641 25.633z" fill="#ffc0a4"/><path d="m322.241 197.631c0 7.082-2.873 13.489-7.513 18.136-4.64 4.632-11.054 7.505-18.128 7.505h-40.407v-51.275h40.407c14.157.001 25.641 11.478 25.641 25.634z" fill="#ffa87a"/><g><path d="m234.185 197.635c0 7.79-6.315 14.105-14.105 14.105s-14.105-6.315-14.105-14.105 6.315-14.106 14.105-14.106 14.105 6.315 14.105 14.106z" fill="#4c3147"/><path d="m306.066 197.635c0 7.79-6.315 14.105-14.106 14.105-7.79 0-14.105-6.315-14.105-14.105s6.315-14.106 14.105-14.106c7.791 0 14.106 6.315 14.106 14.106z" fill="#42293d"/></g></g></g></g></g></g></g></g></g></g></g><path d="m314.56 299.04c0 32.33-26.2 58.54-58.52 58.56h-.04c-32.34 0-58.56-26.22-58.56-58.56s26.22-58.55 58.56-58.55h.04c32.32.02 58.52 26.22 58.52 58.55z" fill="#464f6e"/><g fill="#303c5a"><path d="m314.56 299.04c0 32.33-26.2 58.54-58.52 58.56v-117.11c32.32.02 58.52 26.22 58.52 58.55z"/><path d="m297.04 299.04c0 22.654-18.349 41.015-40.991 41.04h-.049c-22.666 0-41.04-18.374-41.04-41.04s18.374-41.04 41.04-41.04h.049c22.642.025 40.991 18.386 40.991 41.04z"/><path d="m174.656 353.562c-12.586 0-22.788-10.203-22.788-22.788v-63.464c0-12.586 10.203-22.788 22.788-22.788 12.586 0 22.788 10.203 22.788 22.788v63.464c.001 12.585-10.202 22.788-22.788 22.788z"/></g><path d="m337.344 353.562c-12.586 0-22.788-10.203-22.788-22.788v-63.464c0-12.586 10.203-22.788 22.788-22.788 12.586 0 22.788 10.203 22.788 22.788v63.464c0 12.585-10.203 22.788-22.788 22.788z" fill="#22273b"/><path d="m297.04 299.04c0 22.654-18.349 41.015-40.991 41.04v-82.08c22.642.025 40.991 18.386 40.991 41.04z" fill="#22273b"/><g><g><ellipse cx="246.955" cy="299.04" fill="#464f6e" rx="7.745" ry="7.745" transform="matrix(.455 -.89 .89 .455 -131.714 382.834)"/><path d="m272.79 299.04c0 4.278-3.468 7.745-7.745 7.745-4.278 0-7.745-3.468-7.745-7.745 0-4.278 3.468-7.745 7.745-7.745s7.745 3.467 7.745 7.745z" fill="#303c5a"/><ellipse cx="282.916" cy="299.04" fill="#303c5a" rx="7.745" ry="7.745" transform="matrix(.229 -.973 .973 .229 -72.964 505.96)"/><path d="m237.117 299.04c0 4.278-3.468 7.745-7.745 7.745-4.278 0-7.745-3.468-7.745-7.745 0-4.278 3.468-7.745 7.745-7.745 4.278 0 7.745 3.467 7.745 7.745z" fill="#464f6e"/></g><g><ellipse cx="237.911" cy="281.022" fill="#464f6e" rx="7.745" ry="7.745" transform="matrix(.707 -.707 .707 .707 -129.03 250.538)"/><path d="m263.75 281.02c0 4.26-3.44 7.72-7.7 7.75h-.05c-4.28 0-7.75-3.47-7.75-7.75s3.47-7.74 7.75-7.74h.05c4.26.03 7.7 3.48 7.7 7.74z" fill="#464f6e"/><ellipse cx="274.089" cy="281.022" fill="#303c5a" rx="7.745" ry="7.745" transform="matrix(.229 -.973 .973 .229 -62.229 483.476)"/></g><g><circle cx="237.911" cy="317.058" fill="#464f6e" r="7.745"/><path d="m263.75 317.06c0 4.26-3.44 7.71-7.7 7.74h-.05c-4.28 0-7.75-3.46-7.75-7.74s3.47-7.75 7.75-7.75h.05c4.26.03 7.7 3.49 7.7 7.75z" fill="#464f6e"/><circle cx="274.089" cy="317.058" fill="#303c5a" r="7.745"/></g></g><path d="m263.75 317.06c0 4.26-3.44 7.71-7.7 7.74v-15.49c4.26.03 7.7 3.49 7.7 7.75z" fill="#303c5a"/><path d="m256.05 288.77v-15.49c4.26.03 7.7 3.48 7.7 7.74s-3.44 7.72-7.7 7.75z" fill="#303c5a"/></g><path d="m512 256c0 141.38-114.62 256-256 256s-256-114.62-256-256c0-46.22 12.25-89.57 33.68-127 44.12-77.07 127.16-129 222.32-129s178.2 51.93 222.32 129c21.43 37.43 33.68 80.78 33.68 127z" fill="none"/></g></svg>